# xmcd
#
# Track frame offsets: 
#        150
#        20612
#        45622
#        68112
#        94867
#        107707
#        131845
#        144950
#
# Disc length: 2266 seconds
#
# Revision: 1
# Processed by: cddbd v1.5.2PL0 Copyright (c) Steve Scherf et al.
# Submitted via: ExactAudioCopyFreeDBPlugin 1.0
#
DISCID=6c08d808
DTITLE=バルトーク - バルトーク弦楽四重奏曲全集 Disc 2
DYEAR=2000
DGENRE=Classical
TTITLE0=弦楽四重奏曲第3番_01
TTITLE1=弦楽四重奏曲第3番_02
TTITLE2=弦楽四重奏曲第3番_03
TTITLE3=弦楽四重奏曲第4番_01
TTITLE4=弦楽四重奏曲第4番_02
TTITLE5=弦楽四重奏曲第4番_03
TTITLE6=弦楽四重奏曲第4番_04
TTITLE7=弦楽四重奏曲第4番_05
EXTD=
EXTT0=
EXTT1=
EXTT2=
EXTT3=
EXTT4=
EXTT5=
EXTT6=
EXTT7=
PLAYORDER=
